<svg xmlns="http://www.w3.org/2000/svg" xmlns:xlink="http://www.w3.org/1999/xlink" viewBox="0 0 90.01 80.51"><defs><style>.cls-1{fill:#fff;}.cls-2{fill:url(#Degradado_sin_nombre_67);}</style><linearGradient id="Degradado_sin_nombre_67" x1="84.51" y1="40.25" x2="4.37" y2="40.25" gradientUnits="userSpaceOnUse"><stop offset="0" stop-color="#5ec1ce"/><stop offset="0.62" stop-color="#5f4f9c"/><stop offset="1" stop-color="#48498a"/></linearGradient></defs><g id="Capa_2" data-name="Capa 2"><g id="Capa_1-2" data-name="Capa 1"><path class="cls-1" d="M33.33,60.11l.13-54a.52.52,0,0,0-.92-.34L5.59,39a.54.54,0,0,0,.07.76l46,34.56a.52.52,0,0,0,.84-.42L52.4,6.11a.53.53,0,0,1,.52-.54l11.75,0,7.82,0,.14,68.89c0,.3,8.62.52,0,.54L84.5,75"/><path class="cls-2" d="M38.83,60.11l.05-20L39,10.48V6.88c0-.24,0-.49,0-.73A6.12,6.12,0,0,0,32.76.07c-3.85.19-6,4.1-8.17,6.78L5.42,30.48,2.53,34.05l-.71.87C.11,37.05-.7,39.71.75,42.26A10.28,10.28,0,0,0,3.86,45.2L7,47.58,30.85,65.47l11.6,8.71c2.07,1.55,4.1,3.2,6.23,4.67a5.71,5.71,0,0,0,2.49.94,6.06,6.06,0,0,0,6.86-6c0-.58,0-1.17,0-1.75l0-9.7L58,30.85,57.9,7.33c0-.3,0-.6,0-.9,0-.64.24-.57-.13.87L56.36,9.72l.18-.19L54.12,11c-1.43.4-1.51.11-.88.12h10l9.26,0L67,5.53l.05,27,.08,38c0,1.26-.05,2.52,0,3.78a9.45,9.45,0,0,0,.19,1.6c.66,2.91,3.27,3.87,5.82,4.17.62.07,1.23.12,1.84.17l.88.07c1.11.08-1.52-.37-.87-.12l-3.84-3.84h0l2.53-6.21c2.73-1.3,3.45-.73,1.68-.69l-2.73,0a5.5,5.5,0,0,0,0,11l11.87.05a5.5,5.5,0,0,0,0-11l-11.87-.05v11c2.25,0,4.52.16,6.6-.83a5.49,5.49,0,0,0,2.53-6.21,5.89,5.89,0,0,0-4-3.89,13.58,13.58,0,0,0-2.51-.29l-1.46-.12-.29,0c-.79-.06,1.11.16,1,.14-.71-.14-.33-.31.92.46l2,2h0l.75,2.77,0-23.39-.07-37,0-8.52A5.58,5.58,0,0,0,72.49,0c-6.38,0-12.78-.1-19.16,0A6.24,6.24,0,0,0,46.9,6.19c0,.43,0,.87,0,1.29v6.34L47,36.24l0,24.35c0,4.34-.15,8.72,0,13.07,0,.53-.24.67.14-1l1.42-2.42.77-.59,2.77-.75h-.22l2.77.75A35.67,35.67,0,0,1,50,66.14L39,57.92,14.12,39.24,8.43,35l2,2-.15-.23L11,39.49l0-.27L10.22,42c-.05.11-1.08,1.29-.56.63l.53-.65,2-2.41,6.4-7.89L33.1,13.73l2.41-3c.49-.6,1.83-1.78,0-.44l-2.77.75-1-.14L29.34,9.52l.16.18L28.09,7.27C27.72,5.78,28,5.78,28,6.45c0,.37,0,.73,0,1.09v3.92l0,12.92-.07,29v6.7a5.5,5.5,0,0,0,11,0Z"/></g></g></svg>