<svg xmlns="http://www.w3.org/2000/svg" xmlns:xlink="http://www.w3.org/1999/xlink" viewBox="0 0 423.46 80.51"><defs><style>.cls-1{fill:#fff;}.cls-2{fill:url(#Degradado_sin_nombre_67);}.cls-3{fill:#5ec1ce;}</style><linearGradient id="Degradado_sin_nombre_67" x1="84.51" y1="40.25" x2="4.37" y2="40.25" gradientUnits="userSpaceOnUse"><stop offset="0" stop-color="#5ec1ce"/><stop offset="0.62" stop-color="#5f4f9c"/><stop offset="1" stop-color="#48498a"/></linearGradient></defs><g id="Capa_2" data-name="Capa 2"><g id="Capa_1-2" data-name="Capa 1"><path class="cls-1" d="M33.33,60.11l.13-54a.52.52,0,0,0-.92-.34L5.59,39a.54.54,0,0,0,.07.76l46,34.56a.52.52,0,0,0,.84-.42L52.4,6.11a.53.53,0,0,1,.52-.54l11.75,0,7.82,0,.14,68.89c0,.3,8.62.52,0,.54L84.5,75"/><path class="cls-2" d="M38.83,60.11l.05-20L39,10.48V6.88c0-.24,0-.49,0-.73A6.12,6.12,0,0,0,32.76.07c-3.85.19-6,4.1-8.17,6.78L5.42,30.48,2.53,34.05l-.71.87C.11,37.05-.7,39.71.75,42.26A10.28,10.28,0,0,0,3.86,45.2L7,47.58,30.85,65.47l11.6,8.71c2.07,1.55,4.1,3.2,6.23,4.67a5.71,5.71,0,0,0,2.49.94,6.06,6.06,0,0,0,6.86-6c0-.58,0-1.17,0-1.75l0-9.7L58,30.85,57.9,7.33c0-.3,0-.6,0-.9,0-.64.24-.57-.13.87L56.36,9.72l.18-.19L54.12,11c-1.43.4-1.51.11-.88.12h10l9.26,0L67,5.53l.05,27,.08,38c0,1.26-.05,2.52,0,3.78a9.45,9.45,0,0,0,.19,1.6c.66,2.91,3.27,3.87,5.82,4.17.62.07,1.23.12,1.84.17l.88.07c1.11.08-1.52-.37-.87-.12l-3.84-3.84h0l2.53-6.21c2.73-1.3,3.45-.73,1.68-.69l-2.73,0a5.5,5.5,0,0,0,0,11l11.87.05a5.5,5.5,0,0,0,0-11l-11.87-.05v11c2.25,0,4.52.16,6.6-.83a5.49,5.49,0,0,0,2.53-6.21,5.89,5.89,0,0,0-4-3.89,13.58,13.58,0,0,0-2.51-.29l-1.46-.12-.29,0c-.79-.06,1.11.16,1,.14-.71-.14-.33-.31.92.46l2,2h0l.75,2.77,0-23.39-.07-37,0-8.52A5.58,5.58,0,0,0,72.49,0c-6.38,0-12.78-.1-19.16,0A6.24,6.24,0,0,0,46.9,6.19c0,.43,0,.87,0,1.29v6.34L47,36.24l0,24.35c0,4.34-.15,8.72,0,13.07,0,.53-.24.67.14-1l1.42-2.42.77-.59,2.77-.75h-.22l2.77.75A35.67,35.67,0,0,1,50,66.14L39,57.92,14.12,39.24,8.43,35l2,2-.15-.23L11,39.49l0-.27L10.22,42c-.05.11-1.08,1.29-.56.63l.53-.65,2-2.41,6.4-7.89L33.1,13.73l2.41-3c.49-.6,1.83-1.78,0-.44l-2.77.75-1-.14L29.34,9.52l.16.18L28.09,7.27C27.72,5.78,28,5.78,28,6.45c0,.37,0,.73,0,1.09v3.92l0,12.92-.07,29v6.7a5.5,5.5,0,0,0,11,0Z"/><path class="cls-3" d="M133,59.17,122.92,19.46,123,62.51a7.8,7.8,0,0,1-1.58,5.36,5.86,5.86,0,0,1-8.41,0q-1.62-1.75-1.62-5.38l-.1-49.34c0-2.73.7-4.56,2.12-5.52a10.16,10.16,0,0,1,5.74-1.43h3.91a14.67,14.67,0,0,1,5.13.63,4.27,4.27,0,0,1,2.36,2.29,34.64,34.64,0,0,1,1.76,5.4l9.13,34.14,9-34.18a36.92,36.92,0,0,1,1.73-5.4,4.34,4.34,0,0,1,2.36-2.31,15,15,0,0,1,5.13-.64h3.91a10.14,10.14,0,0,1,5.75,1.41c1.42,1,2.13,2.78,2.13,5.51l.1,49.35A7.8,7.8,0,0,1,170,67.78a5.45,5.45,0,0,1-4.27,1.79,5.29,5.29,0,0,1-4.13-1.77,7.76,7.76,0,0,1-1.63-5.36l-.09-43-9.92,39.75c-.64,2.58-1.17,4.48-1.58,5.68a7.83,7.83,0,0,1-2.27,3.3,6.57,6.57,0,0,1-4.59,1.5,6.94,6.94,0,0,1-3.75-1,6.78,6.78,0,0,1-2.38-2.44A14,14,0,0,1,134,62.94C133.67,61.73,133.33,60.48,133,59.17Z"/><path class="cls-3" d="M211.84,5a33.39,33.39,0,0,1,16.67,3.9,25.55,25.55,0,0,1,10.55,11.17,38.12,38.12,0,0,1,3.6,17,41.9,41.9,0,0,1-1.92,13.15,28.37,28.37,0,0,1-5.86,10.26,25.59,25.59,0,0,1-9.6,6.66,38,38,0,0,1-26.16,0,26.06,26.06,0,0,1-9.67-6.64,28.41,28.41,0,0,1-5.87-10.33,41.31,41.31,0,0,1-2-13,40.57,40.57,0,0,1,2-13.2,28.37,28.37,0,0,1,6-10.22,25.79,25.79,0,0,1,9.52-6.46A34.22,34.22,0,0,1,211.84,5Zm18,32a29.08,29.08,0,0,0-2.24-11.86,16.54,16.54,0,0,0-6.33-7.59A17.33,17.33,0,0,0,211.86,15a16.88,16.88,0,0,0-7,1.44,15.28,15.28,0,0,0-5.52,4.16,19.77,19.77,0,0,0-3.65,7,31.23,31.23,0,0,0-1.32,9.51,32.23,32.23,0,0,0,1.36,9.61,19.57,19.57,0,0,0,3.8,7.12,15.9,15.9,0,0,0,5.62,4.22A17.75,17.75,0,0,0,221,57a16.74,16.74,0,0,0,6.45-7.5A28.87,28.87,0,0,0,229.86,37Z"/><path class="cls-3" d="M269.89,12.45l24.36,36.71-.07-37.1a8.14,8.14,0,0,1,1.54-5.43,5.22,5.22,0,0,1,4.19-1.81,5.36,5.36,0,0,1,4.3,1.8A8,8,0,0,1,305.79,12l.1,49.05q0,8.2-6.79,8.22a9.2,9.2,0,0,1-3.07-.48,7.74,7.74,0,0,1-2.55-1.55,14.92,14.92,0,0,1-2.22-2.49c-.68-.94-1.36-1.91-2.05-2.9L265.45,25.6l.07,36.54a7.83,7.83,0,0,1-1.65,5.41,5.52,5.52,0,0,1-4.25,1.84,5.43,5.43,0,0,1-4.3-1.84,8,8,0,0,1-1.63-5.38l-.09-48.12a13.34,13.34,0,0,1,.67-4.81,6.82,6.82,0,0,1,2.67-3.13,7.28,7.28,0,0,1,4-1.22,6.93,6.93,0,0,1,2.91.55A7.25,7.25,0,0,1,266,6.92a15.47,15.47,0,0,1,1.87,2.43Z"/><path class="cls-3" d="M360.72,15.5l-28.46.06,0,15.31,26.21-.05a6.3,6.3,0,0,1,4.32,1.29,4.39,4.39,0,0,1,1.43,3.42,4.56,4.56,0,0,1-1.4,3.47,6.05,6.05,0,0,1-4.34,1.35l-26.2,0,0,17.74,29.44-.06a6.45,6.45,0,0,1,4.49,1.38,4.72,4.72,0,0,1,1.52,3.67,4.66,4.66,0,0,1-1.5,3.6,6.41,6.41,0,0,1-4.49,1.39l-34.33.07q-4.12,0-5.94-1.82c-1.21-1.21-1.81-3.18-1.82-5.91l-.09-46.88a10.47,10.47,0,0,1,.8-4.44A5.05,5.05,0,0,1,323,6.62a10.65,10.65,0,0,1,4.4-.8l33.35-.06a6.46,6.46,0,0,1,4.49,1.33,4.56,4.56,0,0,1,1.48,3.51,4.57,4.57,0,0,1-1.47,3.55A6.42,6.42,0,0,1,360.72,15.5Z"/><path class="cls-3" d="M391.74,61.43l0-19.78L376.42,18.07a52.63,52.63,0,0,1-2.84-5,7.62,7.62,0,0,1-.83-3.1,5,5,0,0,1,1.67-3.75,5.84,5.84,0,0,1,4.15-1.58,5,5,0,0,1,3.93,1.46,44,44,0,0,1,4,5.84l11.69,18.91,11.75-19L411.76,9a18.07,18.07,0,0,1,1.59-2.24,6.27,6.27,0,0,1,1.93-1.6,5.55,5.55,0,0,1,2.6-.56,5.48,5.48,0,0,1,4,1.55,4.91,4.91,0,0,1,1.6,3.59,7.67,7.67,0,0,1-.8,3.32,43.69,43.69,0,0,1-2.76,4.6l-15.56,24,0,19.78q0,3.87-1.77,5.79a6,6,0,0,1-4.55,1.93,5.9,5.9,0,0,1-4.55-1.89Q391.75,65.34,391.74,61.43Z"/></g></g></svg>